# xmcd
#
# Track frame offsets: 
#        150
#        12819
#        28708
#        44507
#        59581
#        75985
#        94651
#        109161
#        125463
#        141203
#        158671
#        175009
#        191351
#        205951
#        223453
#        242089
#        258489
#        275640
#        301135
#
# Disc length: 4236 seconds
#
# Revision: 0
# Processed by: cddbd v1.5.2PL0 Copyright (c) Steve Scherf et al.
# Submitted via: ExactAudioCopy v1.0b3
#
DISCID=0c108a13
DTITLE=Various Artist - Trance The Vocal Session Vol. 08 - CD 2
DYEAR=1900
DGENRE=
TTITLE0=Gigi D'Agostino - Wellfare (Album Version)
TTITLE1=Adrima - Discoland (Single Mix)
TTITLE2=Tune Up! - Another Day (Radio Mix)
TTITLE3=Sunday's Child - Calling For Sunshine
TTITLE4=Clubgroovers - Warriors Of Love
TTITLE5=Ayu - Appears (Armin Van Buuren's Rising Star Radio Edit)
TTITLE6=DJ Tatana Feat. Pee - All That I Feel (Radio Edit)
TTITLE7=Jan Wayne - Mad World (Radio Edit)
TTITLE8=Magic D. - Someday (Alex Megane Radio Edit)
TTITLE9=DJ Session One Feat. Kristen Ficara - The Beat
TTITLE10=D-Wave - Why Can't We (DJ Session One Radio Mix)
TTITLE11=DJenetix - A Matter Of Time (Radio Mix)
TTITLE12=The Lost Brothers - Cry Little Sister (I Need U Now) (Steve M
TTITLE12=urano Remix Edit)
TTITLE13=Sonorous - Last Sunday (Radio Version)
TTITLE14=Lime 'n' Dale - Downtown
TTITLE15=Re-Order - True Faith 2005 (Club Cut)
TTITLE16=Marco Larusso - Bad 4 Good (Radio Mix)
TTITLE17=M-Train - Wonderland (Maxx Da Bass Remix)
TTITLE18=Freddy Fader - The Sun (Single)
EXTD=
EXTT0=
EXTT1=
EXTT2=
EXTT3=
EXTT4=
EXTT5=
EXTT6=
EXTT7=
EXTT8=
EXTT9=
EXTT10=
EXTT11=
EXTT12=
EXTT13=
EXTT14=
EXTT15=
EXTT16=
EXTT17=
EXTT18=
PLAYORDER=
